<svg width="1200" height="630" viewBox="0 0 1200 630" fill="none" xmlns="http://www.w3.org/2000/svg">
  <!-- Background gradient -->
  <defs>
    <linearGradient id="bg" x1="0" y1="0" x2="1200" y2="630" gradientUnits="userSpaceOnUse">
      <stop offset="0%" stop-color="#EFF6FF"/>
      <stop offset="100%" stop-color="#DBEAFE"/>
    </linearGradient>
    <linearGradient id="accent" x1="0" y1="0" x2="0" y2="630" gradientUnits="userSpaceOnUse">
      <stop offset="0%" stop-color="#005C9D"/>
      <stop offset="100%" stop-color="#003f6e"/>
    </linearGradient>
  </defs>

  <!-- Background -->
  <rect width="1200" height="630" fill="url(#bg)"/>

  <!-- Left accent bar -->
  <rect width="12" height="630" fill="url(#accent)"/>

  <!-- Bottom accent bar -->
  <rect y="590" width="1200" height="40" fill="#005C9D"/>

  <!-- Decorative circle top-right -->
  <circle cx="1100" cy="80" r="180" fill="#005C9D" fill-opacity="0.06"/>
  <circle cx="1150" cy="560" r="120" fill="#02BC6B" fill-opacity="0.07"/>

  <!-- Logo icon paths (scaled up ~4x, translated to 80,220) -->
  <g transform="translate(80, 220) scale(4)">
    <path fill-rule="evenodd" clip-rule="evenodd" d="M3.133 34.4586C1.41 34.4586 0 33.0487 0 31.3255V20.3719H7.886V20.3598H12.626C13.848 20.3285 14.882 19.2632 14.882 18.01C14.882 16.7254 13.817 15.6602 12.532 15.6602H6.26601V15.6622H0V12.5271C0 10.8039 1.41 9.394 3.133 9.394H12.532C14.913 9.394 16.95 10.24 18.61 11.9318C20.302 13.5924 21.148 15.6289 21.148 18.01C21.148 20.3598 20.334 22.3963 18.673 24.0568C17.013 25.7173 15.007 26.5946 12.658 26.6259H6.26601V31.3255C6.26601 33.0487 4.856 34.4586 3.133 34.4586Z" fill="#02BC6B"/>
    <path fill-rule="evenodd" clip-rule="evenodd" d="M25.097 5.7578C28.559 9.1199 30.303 13.3073 30.303 18.0673C30.303 22.7473 28.632 26.9307 25.224 30.3034L20.385 25.7508C22.505 23.6533 23.545 21.128 23.545 18.0673C23.545 14.9832 22.473 12.4619 20.303 10.3538L25.097 5.7578Z" fill="#005C9D"/>
    <path fill-rule="evenodd" clip-rule="evenodd" d="M32.5059 0C37.4909 4.9778 39.9999 11.1499 39.9999 18.2338C39.9999 25.2071 37.5919 31.3753 32.6879 36.3638L28.0189 31.8009C31.6719 28.085 33.4609 23.5781 33.4609 18.2338C33.4609 12.8358 31.6109 8.3328 27.8789 4.6062L32.5059 0Z" fill="#035B81"/>
  </g>

  <!-- Brand name -->
  <text x="260" y="310" font-family="Arial, sans-serif" font-size="72" font-weight="bold" fill="#173A56">Tax Returns Online</text>

  <!-- Tagline -->
  <text x="262" y="370" font-family="Arial, sans-serif" font-size="28" fill="#005C9D" font-weight="500">File with Confidence. Backed by CAs.</text>

  <!-- Divider -->
  <rect x="262" y="395" width="80" height="4" rx="2" fill="#02BC6B"/>

  <!-- Description -->
  <text x="262" y="450" font-family="Arial, sans-serif" font-size="24" fill="#4B5563">Expert CA-assisted ITR Filing · GST · Company Registration</text>
  <text x="262" y="490" font-family="Arial, sans-serif" font-size="24" fill="#4B5563">Tax Planning · Accounting · Compliance</text>

  <!-- URL badge -->
  <rect x="262" y="520" width="320" height="44" rx="22" fill="#005C9D"/>
  <text x="422" y="548" font-family="Arial, sans-serif" font-size="20" fill="white" font-weight="600" text-anchor="middle">www.taxreturnsonline.in</text>

  <!-- Bottom bar text -->
  <text x="600" y="614" font-family="Arial, sans-serif" font-size="16" fill="white" text-anchor="middle" opacity="0.85">Trusted by thousands of individuals &amp; businesses across India</text>
</svg>
